<svg width="300" height="300" viewBox="0 0 300 300" fill="none" xmlns="http://www.w3.org/2000/svg">
<path d="M260 78.6208C260 78.235 259.778 77.8835 259.43 77.7178L233.249 65.264C232.908 65.1021 232.506 65.1453 232.208 65.3759L159.95 121.243L187.332 142.202L226.272 112.095V187.998L67.4329 66.1615C67.1346 65.9326 66.733 65.8905 66.3936 66.0524L40.5693 78.3762C40.2215 78.5421 40 78.8932 40 79.2787V221.37C40 221.756 40.2219 222.107 40.5702 222.273L66.751 234.736C67.0915 234.898 67.4942 234.855 67.7925 234.624L139.568 179.128L112.186 158.169L73.7283 187.905V112.651L232.501 234.524C232.799 234.754 233.201 234.796 233.54 234.634L259.431 222.273C259.779 222.107 260 221.756 260 221.371V78.6208Z" fill="url(#paint0_linear_302_856)"/>
<defs>
<linearGradient id="paint0_linear_302_856" x1="260" y1="146.6" x2="33.1296" y2="139.649" gradientUnits="userSpaceOnUse">
<stop stop-color="#F2CB29"/>
<stop offset="1" stop-color="#F2462A"/>
</linearGradient>
</defs>
</svg>
